<?xml version='1.0' encoding='utf-8'?>
<svg xmlns="http://www.w3.org/2000/svg" viewBox="0 -42.5 240 240"><g id="Layer_2" data-name="Layer 2"><g id="Layer_1-2" data-name="Layer 1"><path d="M46.69,142.88c1.56-.08,2.63-.09,3.67-.21,6.72-.76,13.39-1.83,20-3.06a221,221,0,0,0,38.82-10.51A120.77,120.77,0,0,0,135,115.61a72.67,72.67,0,0,0,18.13-17.8,64.7,64.7,0,0,0,10.64-24.24c.29-1.41.64-2.82,1-4.21a4.37,4.37,0,0,1,.54-.9,15.93,15.93,0,0,1,1.11,5,55.22,55.22,0,0,1-1.1,16.76,49,49,0,0,1-8.88,18.32c-6.19,8.19-14,14.52-22.74,19.8a132.1,132.1,0,0,1-32.24,13.52c-5.25,1.51-10.56,2.78-15.84,4.15l-2,.57a13.87,13.87,0,0,0,1.28.77,80.53,80.53,0,0,0,17.34,5.4,50.31,50.31,0,0,0,10.17,1.14,13.46,13.46,0,0,1,1.44.13,3.48,3.48,0,0,1,0,1.3,13.71,13.71,0,0,1-5.84,6.21,6.91,6.91,0,0,1-4.41.79c-11.27-1.61-21.84-5.14-31.29-11.65-.87-.61-1.75-1.2-2.63-1.79-3.51.5-7,1-10.41,1.48-3.09.41-6.18.79-9.28,1.11q-6.35.65-12.71,1.15c-2.73.2-5.46.27-8.2.36a20.28,20.28,0,0,1-2.14-.17c.33-1.17,1.21-1.72,1.76-2.48s1.21-1.56,1.83-2.34,1.22-1.55,1.84-2.32l1.87-2.3,1.89-2.28,1.9-2.28,1.89-2.28,1.88-2.29L43.68,132c.64-.75,1.31-1.48,1.94-2.25s1.19-1.53,1.84-2.38a11.44,11.44,0,0,0-2.57-1.62A225.45,225.45,0,0,1,19.32,109.9c-1.47-1.07-2.85-2.28-4.21-3.48a5.89,5.89,0,0,1-1.77-3.13c-.75-3.25,1.94-6.86,5.39-6.56a5.16,5.16,0,0,1,3,1.44A85.24,85.24,0,0,0,33.64,107a171.94,171.94,0,0,0,19.08,10.65c.82.37,1.66.69,2.53,1.05a46.55,46.55,0,0,0,3.93-4.7c-.67-.39-1.22-.74-1.81-1A132.81,132.81,0,0,1,34,98a89.24,89.24,0,0,1-9-8.33,21.73,21.73,0,0,1-2.53-3.22,4.83,4.83,0,0,1,.69-6.08,4.07,4.07,0,0,1,5.19-.79,19.94,19.94,0,0,1,2.8,2.32c2.85,2.63,5.59,5.38,8.51,7.92a101.23,101.23,0,0,0,17.72,12c2.12,1.17,4.3,2.25,6.46,3.36.6.3,1.24.54,1.79.78.9-.29,1.27-1,1.75-1.56C72,98.93,76.78,93.61,81.76,88.48a249.87,249.87,0,0,1,24.35-22.34c.89-.71,1.75-1.47,2.65-2.16A2.93,2.93,0,0,0,110,61.66a82,82,0,0,1,4.61-21.77,62,62,0,0,1,25.3-31.64A53.1,53.1,0,0,1,159.32.88,54.37,54.37,0,0,1,170,0,49.31,49.31,0,0,1,191,5.19a54.68,54.68,0,0,1,14.75,10.58c.48.48,1,.93,1.49,1.4,3.26-.63,6.45-1.28,9.65-1.87q8.18-1.48,16.36-2.88a4.63,4.63,0,0,1,3.24.18,4.34,4.34,0,0,1-.37,1.25,29.63,29.63,0,0,1-1.89,2.56c-3.5,4.22-7,8.43-10.52,12.62-2.15,2.55-4.38,5-6.57,7.57l-1.8,2.09c.17.65.29,1.24.47,1.81a77.19,77.19,0,0,1,3.22,15.35,93,93,0,0,1,.25,16.85A95.7,95.7,0,0,1,205,116.91a18.81,18.81,0,0,1-1.92,2.54,4.58,4.58,0,0,1-3.45,1.5,4.26,4.26,0,0,1-4.43-4,5.69,5.69,0,0,1,.89-3.91c.56-.81,1.05-1.67,1.59-2.5a77.35,77.35,0,0,0,10.8-26.66,89.39,89.39,0,0,0,1.78-24.25A80.72,80.72,0,0,0,206.53,40c-.23-.73-.49-1.44-.71-2.17a2,2,0,0,1,.47-2.1c2.13-2.37,4.22-4.79,6.36-7.16,1.22-1.35,2.5-2.65,3.75-4,.25-.26.47-.55.92-1.11a15.65,15.65,0,0,0-2.5.41c-2.57.65-5.13,1.36-7.73,1.89-3.68.76-3.51.78-5.83-1.61a52.34,52.34,0,0,0-10.33-8.56,41.57,41.57,0,0,0-20.52-6.06,45.06,45.06,0,0,0-30,9.56,51.87,51.87,0,0,0-13.68,16.31,61.23,61.23,0,0,0-6.37,18.68c-.25,1.34-.42,2.7-.61,4,0,.13.09.27.18.51a27.71,27.71,0,0,1,8-1.57,8.45,8.45,0,0,1,1.59.11,12.19,12.19,0,0,1,1.48.48,7.86,7.86,0,0,1-1.07,1c-9.86,6.14-18.44,13.88-27,21.66q-8.52,7.77-16.36,16.21-6.51,7-12.75,14.3c-7.52,8.77-14.93,17.63-22.4,26.44-1.23,1.45-2.49,2.87-3.74,4.31C47.45,141.88,47.24,142.18,46.69,142.88Z" transform="translate(0)" /><path d="M177.15,43.89c-4.43.09-9-3.79-9.44-9.07-.56-6.47,5.26-10.61,9.53-10.63,6,0,12.38,6.68,8.75,14.36A9.4,9.4,0,0,1,177.15,43.89Z" transform="translate(0)" /></g></g></svg>