<svg xmlns="http://www.w3.org/2000/svg" viewBox="0 0 296.75 280.29"><g id="Layer_2" data-name="Layer 2"><g id="Layer_1-2" data-name="Layer 1"><path d="M46.69,142.88c1.56-.08,2.63-.09,3.67-.21,6.72-.76,13.39-1.83,20-3.06a221,221,0,0,0,38.82-10.51A120.77,120.77,0,0,0,135,115.61a72.67,72.67,0,0,0,18.13-17.8,64.7,64.7,0,0,0,10.64-24.24c.29-1.41.64-2.82,1-4.21a4.37,4.37,0,0,1,.54-.9,15.93,15.93,0,0,1,1.11,5,55.22,55.22,0,0,1-1.1,16.76,49,49,0,0,1-8.88,18.32c-6.19,8.19-14,14.52-22.74,19.8a132.1,132.1,0,0,1-32.24,13.52c-5.25,1.51-10.56,2.78-15.84,4.15l-2,.57a13.87,13.87,0,0,0,1.28.77,80.53,80.53,0,0,0,17.34,5.4,50.31,50.31,0,0,0,10.17,1.14,13.46,13.46,0,0,1,1.44.13,3.48,3.48,0,0,1,0,1.3,13.71,13.71,0,0,1-5.84,6.21,6.91,6.91,0,0,1-4.41.79c-11.27-1.61-21.84-5.14-31.29-11.65-.87-.61-1.75-1.2-2.63-1.79-3.51.5-7,1-10.41,1.48-3.09.41-6.18.79-9.28,1.11q-6.35.65-12.71,1.15c-2.73.2-5.46.27-8.2.36a20.28,20.28,0,0,1-2.14-.17c.33-1.17,1.21-1.72,1.76-2.48s1.21-1.56,1.83-2.34,1.22-1.55,1.84-2.32l1.87-2.3,1.89-2.28,1.9-2.28,1.89-2.28,1.88-2.29L43.68,132c.64-.75,1.31-1.48,1.94-2.25s1.19-1.53,1.84-2.38a11.44,11.44,0,0,0-2.57-1.62A225.45,225.45,0,0,1,19.32,109.9c-1.47-1.07-2.85-2.28-4.21-3.48a5.89,5.89,0,0,1-1.77-3.13c-.75-3.25,1.94-6.86,5.39-6.56a5.16,5.16,0,0,1,3,1.44A85.24,85.24,0,0,0,33.64,107a171.94,171.94,0,0,0,19.08,10.65c.82.37,1.66.69,2.53,1.05a46.55,46.55,0,0,0,3.93-4.7c-.67-.39-1.22-.74-1.81-1A132.81,132.81,0,0,1,34,98a89.24,89.24,0,0,1-9-8.33,21.73,21.73,0,0,1-2.53-3.22,4.83,4.83,0,0,1,.69-6.08,4.07,4.07,0,0,1,5.19-.79,19.94,19.94,0,0,1,2.8,2.32c2.85,2.63,5.59,5.38,8.51,7.92a101.23,101.23,0,0,0,17.72,12c2.12,1.17,4.3,2.25,6.46,3.36.6.3,1.24.54,1.79.78.9-.29,1.27-1,1.75-1.56C72,98.93,76.78,93.61,81.76,88.48a249.87,249.87,0,0,1,24.35-22.34c.89-.71,1.75-1.47,2.65-2.16A2.93,2.93,0,0,0,110,61.66a82,82,0,0,1,4.61-21.77,62,62,0,0,1,25.3-31.64A53.1,53.1,0,0,1,159.32.88,54.37,54.37,0,0,1,170,0,49.31,49.31,0,0,1,191,5.19a54.68,54.68,0,0,1,14.75,10.58c.48.48,1,.93,1.49,1.4,3.26-.63,6.45-1.28,9.65-1.87q8.18-1.48,16.36-2.88a4.63,4.63,0,0,1,3.24.18,4.34,4.34,0,0,1-.37,1.25,29.63,29.63,0,0,1-1.89,2.56c-3.5,4.22-7,8.43-10.52,12.62-2.15,2.55-4.38,5-6.57,7.57l-1.8,2.09c.17.65.29,1.24.47,1.81a77.19,77.19,0,0,1,3.22,15.35,93,93,0,0,1,.25,16.85A95.7,95.7,0,0,1,205,116.91a18.81,18.81,0,0,1-1.92,2.54,4.58,4.58,0,0,1-3.45,1.5,4.26,4.26,0,0,1-4.43-4,5.69,5.69,0,0,1,.89-3.91c.56-.81,1.05-1.67,1.59-2.5a77.35,77.35,0,0,0,10.8-26.66,89.39,89.39,0,0,0,1.78-24.25A80.72,80.72,0,0,0,206.53,40c-.23-.73-.49-1.44-.71-2.17a2,2,0,0,1,.47-2.1c2.13-2.37,4.22-4.79,6.36-7.16,1.22-1.35,2.5-2.65,3.75-4,.25-.26.47-.55.92-1.11a15.65,15.65,0,0,0-2.5.41c-2.57.65-5.13,1.36-7.73,1.89-3.68.76-3.51.78-5.83-1.61a52.34,52.34,0,0,0-10.33-8.56,41.57,41.57,0,0,0-20.52-6.06,45.06,45.06,0,0,0-30,9.56,51.87,51.87,0,0,0-13.68,16.31,61.23,61.23,0,0,0-6.37,18.68c-.25,1.34-.42,2.7-.61,4,0,.13.09.27.18.51a27.71,27.71,0,0,1,8-1.57,8.45,8.45,0,0,1,1.59.11,12.19,12.19,0,0,1,1.48.48,7.86,7.86,0,0,1-1.07,1c-9.86,6.14-18.44,13.88-27,21.66q-8.52,7.77-16.36,16.21-6.51,7-12.75,14.3c-7.52,8.77-14.93,17.63-22.4,26.44-1.23,1.45-2.49,2.87-3.74,4.31C47.45,141.88,47.24,142.18,46.69,142.88Z" transform="translate(0)"/><path d="M.1,210.05c.47.71.69,1,.85,1.31.75,1.49,1.47,3,2.22,4.49A93.35,93.35,0,0,0,65.4,265.54a128.07,128.07,0,0,0,14.54,2.64c2.48.33,5,.4,7.49.58.76.06,1.52.14,2.27.18,1.37.07,2.74.2,4.1.15A131,131,0,0,0,133,261.68a202.84,202.84,0,0,0,34.56-16.25c11-6.46,21.55-13.69,32-21,8.49-5.89,17-11.79,25.84-17.12a102.09,102.09,0,0,1,20.14-9.5,66,66,0,0,1,15.32-3.33,52.38,52.38,0,0,1,10.47.15,65,65,0,0,1,10.26,2,45.28,45.28,0,0,1,14.13,6.68c.29.2.54.45,1,.81-.44.11-.65.24-.82.19a103.67,103.67,0,0,0-13.42-2.52,64.13,64.13,0,0,0-15.23.07c-8.64,1.06-16.62,4-24.39,7.77A150,150,0,0,0,223.68,221c-11.23,7.68-22.39,15.45-33.62,23.13a258.87,258.87,0,0,1-34.41,20.1,169.81,169.81,0,0,1-35.45,12.85,126.12,126.12,0,0,1-12.55,2.19,122.86,122.86,0,0,1-15.46,1,106,106,0,0,1-41.55-7.93,91.39,91.39,0,0,1-25.76-16.14A83.2,83.2,0,0,1,7.1,234.13,58.93,58.93,0,0,1,.7,217.38,22.37,22.37,0,0,1,.1,210.05Z" transform="translate(0)"/><path d="M287.72,183.54c-1.2-.08-2.41-.11-3.6-.25-2.64-.29-5.28-.63-7.92-.95a49.77,49.77,0,0,0-8.19-.11c-12.5.55-24.19,4.12-35.35,9.57a187.82,187.82,0,0,0-24.32,14.34c-7.13,4.93-14.19,10-21.3,14.9-8.68,6-17.42,12-26.53,17.32a157.79,157.79,0,0,1-31.82,14.57A110.55,110.55,0,0,1,111,257.16a106.18,106.18,0,0,1-25.69.72A97.11,97.11,0,0,1,55.05,250a90.33,90.33,0,0,1-19.23-11.67,77.13,77.13,0,0,1-20.57-24.41,58,58,0,0,1-6.38-17.47,37.77,37.77,0,0,1-.67-8.62,19.17,19.17,0,0,1,.52-2.9,4,4,0,0,1,.49-.83c.46,1.34.82,2.31,1.12,3.31a77,77,0,0,0,15.85,28.71,92.79,92.79,0,0,0,16.64,14.83,87.82,87.82,0,0,0,30.37,13.59,111.16,111.16,0,0,0,11.62,2.19,86,86,0,0,0,9.77.57,97.48,97.48,0,0,0,33.93-5.8c12.86-4.45,24.71-10.86,36.15-18.12,9-5.69,17.68-11.84,26.32-18a261.4,261.4,0,0,1,28.67-18.16,103.68,103.68,0,0,1,18.83-8,71.64,71.64,0,0,1,15.17-2.94,62.15,62.15,0,0,1,28.62,4c1.68.68,3.3,1.53,4.94,2.32a4,4,0,0,1,.65.53Z" transform="translate(0)"/><path d="M283,220.59c-.93.18-1.86.39-2.8.52a93.37,93.37,0,0,0-32.54,11.18c-7.21,3.94-14.08,8.43-20.94,12.94-7.81,5.14-15.56,10.36-23.67,15a152.59,152.59,0,0,1-36.84,15.5,82.25,82.25,0,0,1-23.88,2.95c-.68,0-1.35-.11-2-.2-.12,0-.21-.19-.44-.39a11,11,0,0,1,1.27-.52,214.21,214.21,0,0,0,45.66-19.15c10.7-5.95,21-12.59,31.13-19.42A241.71,241.71,0,0,1,238.81,226a71.86,71.86,0,0,1,19.11-7.18,48.74,48.74,0,0,1,23,.62c.72.2,1.42.47,2.13.71Z" transform="translate(0)"/><path d="M134.47,227.74c-.69.57-1,.86-1.36,1.11a46.78,46.78,0,0,1-16.76,7.42,71.17,71.17,0,0,1-22.64,1.53,94,94,0,0,1-24-5.17A87.87,87.87,0,0,1,40.9,215.12a73.89,73.89,0,0,1-11.46-13,59.83,59.83,0,0,1-7.77-15.41,38.74,38.74,0,0,1-1.61-14.19,4.75,4.75,0,0,1,.22-1.11,3.49,3.49,0,0,1,.45-.67,6.7,6.7,0,0,1,.59,1A78.79,78.79,0,0,0,35.6,196,89.39,89.39,0,0,0,81.25,225,104.37,104.37,0,0,0,96.87,228a105.18,105.18,0,0,0,17.74.9c2.88-.14,5.75-.53,8.64-.64C126.81,228.13,130.34,227.47,134.47,227.74Z" transform="translate(0)"/><path d="M191.12,146.43v42.39a24.82,24.82,0,0,1-.07,2.73c-.37,3.28-4.13,5.78-7.26,4.64a5.34,5.34,0,0,1-3.54-4.61,12.26,12.26,0,0,1,0-1.82q.08-30.21.16-60.4c0-8.51,0-17,0-25.53a19.08,19.08,0,0,1,.16-2.5,5.11,5.11,0,0,1,5.09-4.58,5.25,5.25,0,0,1,5.43,4.78c.09,1,.07,2,.07,3v41.94Z" transform="translate(0)"/><path d="M159.54,163.58V124.81c0-.61,0-1.21,0-1.82a4.4,4.4,0,0,1,1-2.73c1.8-2.31,3.4-2.45,5.86-2a4.91,4.91,0,0,1,3.72,4.65c.12,2.12.15,4.25.15,6.38,0,7.3,0,14.6,0,21.9q0,23.15,0,46.3c0,2.28,0,4.56-.14,6.84a5,5,0,0,1-3.9,4.74,5.27,5.27,0,0,1-5.79-2.15,4.34,4.34,0,0,1-.84-2.33c0-1.14-.1-2.28-.1-3.42q0-18.81,0-37.63Z" transform="translate(0)"/><path d="M150.15,179.08v33.73q0,1.71-.06,3.42a4.41,4.41,0,0,1-3,4.18,4.93,4.93,0,0,1-7.09-4.49c0-.69,0-1.37,0-2l-.09-69.52c0-1.07,0-2.13.08-3.19a5.07,5.07,0,0,1,10-.15,22.79,22.79,0,0,1,.07,2.74q0,17.66,0,35.33Z" transform="translate(0)"/><path d="M130.58,187v27.11c0,.61,0,1.22-.06,1.82a5.06,5.06,0,0,1-10.1-.14c-.06-.76,0-1.52,0-2.28q0-26.9,0-53.77c0-.61,0-1.22,0-1.82.08-2.9,4.14-6.1,7.71-3.82a4.94,4.94,0,0,1,2.3,3.74,17.32,17.32,0,0,1,.06,2.28q0,13.44,0,26.88Z" transform="translate(0)"/><path d="M210.74,155.33c-.06,7.52-.11,15-.19,22.57a11.4,11.4,0,0,1-.24,2.48A4.34,4.34,0,0,1,206.4,184a5,5,0,0,1-6.13-5c0-.68,0-1.37,0-2.05q0-21.66,0-43.32a11.39,11.39,0,0,1,.36-3.14,5.16,5.16,0,0,1,10.06,1,21.63,21.63,0,0,1,.05,2.28Q210.76,144.5,210.74,155.33Z" transform="translate(0)"/><path d="M100.75,191.84c0-5.7,0-11.39,0-17.09a7.22,7.22,0,0,1,.23-2.47,5.3,5.3,0,0,1,5.35-3.44c1.7.16,4.35,1.73,4.62,4.08.09.83.2,1.67.21,2.5q0,16.74,0,33.49a15.43,15.43,0,0,1-.19,2.26,5.15,5.15,0,0,1-10.19-.65c-.07-.75,0-1.51,0-2.27V191.84Z" transform="translate(0)"/><path d="M230.41,156.42c0,4,0,8,0,12.07a7.28,7.28,0,0,1-.26,2.24,4.82,4.82,0,0,1-4.79,3.16,4.58,4.58,0,0,1-4.65-3.29,8,8,0,0,1-.34-2.23q0-12.19,0-24.38a6.15,6.15,0,0,1,.31-2,4.71,4.71,0,0,1,5.56-3.25,4.86,4.86,0,0,1,4.16,4.69c.06,1.52,0,3,0,4.56,0,2.81,0,5.62,0,8.43Z" transform="translate(0)"/><path d="M177.15,43.89c-4.43.09-9-3.79-9.44-9.07-.56-6.47,5.26-10.61,9.53-10.63,6,0,12.38,6.68,8.75,14.36A9.4,9.4,0,0,1,177.15,43.89Z" transform="translate(0)"/><path d="M91.24,193c0,3,.06,5.93,0,8.89a5,5,0,0,1-7.07,4.68,4.88,4.88,0,0,1-3-3.79,6.87,6.87,0,0,1-.1-1.36c0-5.93,0-11.86,0-17.79a4.56,4.56,0,0,1,1.16-3.12c1.33-1.53,3.21-2.06,5.62-1.3a4.69,4.69,0,0,1,3.31,4.44c.06,3.12,0,6.24,0,9.35Z" transform="translate(0)"/><path d="M239.48,160.21c0-1.44-.08-2.89,0-4.33a4.85,4.85,0,0,1,3.53-4.55,5,5,0,0,1,5.54,1.63,4.09,4.09,0,0,1,1.08,2.69c0,3.19.15,6.39,0,9.57-.17,2.86-2.38,4.56-5.26,4.57a5.07,5.07,0,0,1-4.87-4.79c-.06-1.6,0-3.19,0-4.79Z" transform="translate(0)"/></g></g></svg>